<?xml version="1.0" encoding="utf-8"?>
<!-- Generator: Adobe Illustrator 16.0.3, SVG Export Plug-In . SVG Version: 6.00 Build 0)  -->
<!DOCTYPE svg PUBLIC "-//W3C//DTD SVG 1.1//EN" "http://www.w3.org/Graphics/SVG/1.1/DTD/svg11.dtd">
<svg version="1.1" id="Layer_1" xmlns="http://www.w3.org/2000/svg" xmlns:xlink="http://www.w3.org/1999/xlink" x="0px" y="0px"
	 width="50px" height="50px" viewBox="0 0 50 50" enable-background="new 0 0 50 50" xml:space="preserve" fill="#fff">
<path d="M50,25.001C50,11.214,38.78,0,25,0C11.214,0,0,11.214,0,25.001c0,7.356,3.195,13.979,8.269,18.558
	c0.05,0.056,0.106,0.1,0.167,0.144C12.849,47.617,18.65,50,25,50c6.347,0,12.145-2.381,16.558-6.292
	c0.064-0.046,0.125-0.093,0.178-0.153C46.808,38.976,50,32.355,50,25.001z M2.103,25.001C2.103,12.372,12.372,2.103,25,2.103
	s22.898,10.269,22.903,22.898c0,5.984-2.31,11.437-6.081,15.521c-0.919-6.552-5.592-11.923-11.787-13.844
	c3.041-1.75,5.098-5.028,5.098-8.784c0-5.587-4.546-10.133-10.133-10.133c-5.586,0-10.132,4.545-10.132,10.133
	c0,3.756,2.057,7.034,5.097,8.784C13.771,28.599,9.102,33.97,8.184,40.521C4.413,36.438,2.103,30.985,2.103,25.001z"/>
</svg>
