<?xml version="1.0" encoding="utf-8"?>
<!-- Generator: Adobe Illustrator 16.0.3, SVG Export Plug-In . SVG Version: 6.00 Build 0)  -->
<!DOCTYPE svg PUBLIC "-//W3C//DTD SVG 1.1//EN" "http://www.w3.org/Graphics/SVG/1.1/DTD/svg11.dtd">
<svg version="1.1" id="Layer_1" xmlns="http://www.w3.org/2000/svg" xmlns:xlink="http://www.w3.org/1999/xlink" x="0px" y="0px"
	 width="50px" height="50px" viewBox="0 0 50 50" enable-background="new 0 0 50 50" xml:space="preserve">
<g>
	<path fill="#FFFFFF" d="M50,29.86c0,3.391-2.749,6.14-6.141,6.14H6.141C2.749,36,0,33.251,0,29.86V20.14
		C0,16.749,2.749,14,6.141,14h37.719C47.251,14,50,16.749,50,20.14V29.86z M48,20.113C48,17.841,46.158,16,43.887,16H6.113
		C3.842,16,2,17.841,2,20.113v9.773C2,32.158,3.842,34,6.113,34h37.773C46.158,34,48,32.158,48,29.887V20.113z"/>
	<g>
		<path fill="#FFFFFF" d="M25.552,25.025c0,2.439-1.482,3.733-3.291,3.733c-1.872,0-3.188-1.451-3.188-3.598
			c0-2.25,1.399-3.722,3.292-3.722C24.3,21.439,25.552,22.922,25.552,25.025z M20.052,25.141c0,1.515,0.82,2.871,2.261,2.871
			c1.451,0,2.271-1.335,2.271-2.944c0-1.409-0.735-2.882-2.261-2.882C20.809,22.186,20.052,23.584,20.052,25.141z"/>
		<path fill="#FFFFFF" d="M26.739,21.555h0.915v3.418h0.031c0.189-0.273,0.379-0.525,0.558-0.758l2.166-2.66h1.136l-2.566,3.008
			l2.767,4.08h-1.084l-2.334-3.481l-0.673,0.779v2.702h-0.915V21.555z"/>
	</g>
</g>
</svg>
