<?xml version="1.0" encoding="utf-8"?>
<!-- Generator: Adobe Illustrator 16.0.3, SVG Export Plug-In . SVG Version: 6.00 Build 0)  -->
<!DOCTYPE svg PUBLIC "-//W3C//DTD SVG 1.1//EN" "http://www.w3.org/Graphics/SVG/1.1/DTD/svg11.dtd">
<svg version="1.1" id="Layer_1" xmlns="http://www.w3.org/2000/svg" xmlns:xlink="http://www.w3.org/1999/xlink" x="0px" y="0px"
	 width="50px" height="50px" viewBox="0 0 50 50" enable-background="new 0 0 50 50" xml:space="preserve">
<g id="Layer_x0020_1_3_">
	<g id="_2744583905792_3_">
		<path fill="#FFFFFF" d="M5.137,35.298l13.741-14.342c0.385-0.396,1.021-0.409,1.417-0.035l9.139,9.536l5.09-4.74
			c0.397-0.386,1.033-0.363,1.407,0.046l8.99,9.592c0.386,0.408,0.363,1.031-0.033,1.417c-0.216,0.193-0.478,0.283-0.737,0.261
			H33.401v0.012H5.805c-0.556,0-1.009-0.452-1.009-1.01C4.796,35.74,4.932,35.479,5.137,35.298z M2.007,42.236h45.986V7.77H2.007
			V42.236z M0.998,5.764h48.005C49.547,5.764,50,6.217,50,6.762v36.478c0,0.544-0.453,0.997-0.997,0.997H0.998
			C0.453,44.236,0,43.783,0,43.239V6.762C0,6.217,0.453,5.764,0.998,5.764z M29.83,13.484c2.46,0.045,4.037,1.428,4.729,3.186
			c0.26,0.657,0.384,1.382,0.374,2.097c0,0.714-0.148,1.428-0.421,2.086c-0.715,1.7-2.29,3.004-4.716,2.981
			c-2.528-0.022-4.149-1.406-4.864-3.163c-0.262-0.669-0.396-1.384-0.386-2.108c0-0.726,0.146-1.452,0.431-2.109
			C25.714,14.754,27.337,13.45,29.83,13.484z M32.698,17.396c-0.42-1.054-1.383-1.894-2.901-1.916
			c-1.554-0.023-2.552,0.748-2.982,1.769c-0.182,0.419-0.271,0.873-0.284,1.326c0,0.465,0.08,0.93,0.262,1.36
			c0.419,1.056,1.429,1.894,3.016,1.916c1.485,0.013,2.449-0.759,2.868-1.769c0.17-0.419,0.261-0.872,0.261-1.337
			C32.948,18.291,32.868,17.826,32.698,17.396z M35.148,27.85l-4.332,4.059l3.004,3.14h8.073L35.148,27.85z M19.604,23.087
			L8.141,35.037h22.915L19.604,23.087z"/>
	</g>
</g>
</svg>
