<?xml version="1.0" encoding="utf-8"?>
<!-- Generator: Adobe Illustrator 16.0.3, SVG Export Plug-In . SVG Version: 6.00 Build 0)  -->
<!DOCTYPE svg PUBLIC "-//W3C//DTD SVG 1.1//EN" "http://www.w3.org/Graphics/SVG/1.1/DTD/svg11.dtd">
<svg version="1.1" id="Layer_1" xmlns="http://www.w3.org/2000/svg" xmlns:xlink="http://www.w3.org/1999/xlink" x="0px" y="0px"
	 width="50px" height="50px" viewBox="0 0 50 50" enable-background="new 0 0 50 50" xml:space="preserve">
<g>
	<path fill="#FFFFFF" d="M35.416,4.149h-7.314V41.2c0,2.907,0.357,4.868,1.068,5.881c0.713,1.016,2.096,1.521,4.15,1.521V50H16.27
		v-1.397c2.12,0,3.56-0.581,4.322-1.747c0.76-1.165,1.143-3.132,1.143-5.901V4.149h-6.986c-3.341,0-5.772,0.534-7.292,1.603
		c-1.519,1.068-2.376,2.835-2.568,5.3H3.451V0h1.438c1.289,1.206,3.699,1.808,7.231,1.808h25.267c3.643,0,6.191-0.602,7.643-1.808
		h1.52v11.052h-0.945c-0.602-2.656-1.678-4.471-3.225-5.444C40.832,4.636,38.51,4.149,35.416,4.149z"/>
</g>
</svg>
