<?xml version="1.0" encoding="utf-8"?>
<!-- Generator: Adobe Illustrator 16.0.3, SVG Export Plug-In . SVG Version: 6.00 Build 0)  -->
<!DOCTYPE svg PUBLIC "-//W3C//DTD SVG 1.1//EN" "http://www.w3.org/Graphics/SVG/1.1/DTD/svg11.dtd">
<svg version="1.1" id="Layer_1" xmlns="http://www.w3.org/2000/svg" xmlns:xlink="http://www.w3.org/1999/xlink" x="0px" y="0px"
	 width="50px" height="50px" viewBox="0 0 50 50" enable-background="new 0 0 50 50" xml:space="preserve">
<g>
	<g>
		<g>
			<g>
				<path fill="#FFFFFF" d="M29.054,27.203c0,2.284-1.849,4.133-4.129,4.133c-2.285,0-4.135-1.849-4.135-4.133
					c0-2.283,1.85-4.132,4.135-4.132C27.205,23.071,29.054,24.92,29.054,27.203z M37.511,16.849c1.648,0,2.987,1.336,2.987,2.987
					v7.828v6.64c0,1.76-1.426,3.185-3.186,3.185H12.533c-1.759,0-3.185-1.425-3.185-3.185v-6.646v-7.821l0,0
					c0-1.651,1.336-2.987,2.987-2.987h5.973l0.281-1.19c0.429-1.843,2.073-3.146,3.966-3.146h4.741c1.892,0,3.535,1.304,3.964,3.146
					l0.276,1.19H37.511L37.511,16.849z M15.578,21.159c0-0.825-0.672-1.496-1.498-1.496c-0.831,0-1.501,0.671-1.501,1.496
					s0.67,1.497,1.496,1.497C14.906,22.662,15.578,21.991,15.578,21.159z M32.292,27.203c0-4.067-3.302-7.367-7.367-7.367
					c-4.07,0-7.371,3.3-7.371,7.367s3.301,7.368,7.371,7.368C28.99,34.571,32.292,31.271,32.292,27.203z"/>
			</g>
		</g>
	</g>
	<g>
		<path fill="#FFFFFF" d="M25,50C11.215,50,0,38.785,0,25S11.215,0,25,0s25,11.215,25,25S38.785,50,25,50z M25,0.897
			C11.71,0.897,0.897,11.71,0.897,25S11.71,49.103,25,49.103S49.103,38.29,49.103,25S38.29,0.897,25,0.897z"/>
	</g>
</g>
</svg>
