<?xml version="1.0" encoding="utf-8"?>
<!-- Generator: Adobe Illustrator 16.0.3, SVG Export Plug-In . SVG Version: 6.00 Build 0)  -->
<!DOCTYPE svg PUBLIC "-//W3C//DTD SVG 1.1//EN" "http://www.w3.org/Graphics/SVG/1.1/DTD/svg11.dtd">
<svg version="1.1" id="Layer_1" xmlns="http://www.w3.org/2000/svg" xmlns:xlink="http://www.w3.org/1999/xlink" x="0px" y="0px"
	 width="50px" height="50px" viewBox="0 0 50 50" enable-background="new 0 0 50 50" xml:space="preserve" fill="#fff">
<g>
	<path d="M49.959,19.162c-0.002-0.537-0.217-1.123-0.596-1.504C48.986,17.281,48.477,17,47.944,17c-0.003,0-0.006,0-0.009,0
		l-5.372,0.091c-0.564-1.279-1.265-2.455-2.095-3.586l2.67-4.685c0.265-0.469,0.335-1.015,0.196-1.534
		c-0.141-0.521-0.479-0.958-0.944-1.227l-9.967-5.748c-0.314-0.181-0.659-0.266-0.998-0.266c-0.699,0-1.377,0.367-1.75,1.021
		l-2.67,4.705C26.338,5.7,25.668,5.645,25,5.644l0,0c-0.719-0.001-1.437,0.014-2.151,0.094l-2.703-4.682
		c-0.27-0.466-0.711-0.805-1.228-0.943c-0.516-0.138-1.066-0.063-1.528,0.208L7.466,6.149C6.506,6.714,6.18,7.958,6.739,8.927
		l2.701,4.674c-0.418,0.574-0.794,1.157-1.138,1.761c-0.342,0.604-0.65,1.226-0.931,1.88l-5.366,0.021
		C0.894,17.269-0.004,18.181,0,19.303l0.042,11.578c0.002,0.537,0.216,1.102,0.595,1.482C1.014,32.74,1.524,33,2.056,33
		c0.003,0,0.006,0,0.008,0l5.373-0.069c0.564,1.279,1.265,2.466,2.095,3.597l-2.67,4.69c-0.265,0.469-0.335,1.018-0.196,1.536
		c0.141,0.521,0.48,0.959,0.944,1.229l9.967,5.749c0.315,0.181,0.66,0.266,0.999,0.266c0.699,0,1.377-0.366,1.75-1.021l2.671-4.705
		c0.668,0.071,1.337,0.104,2.005,0.105v0.045c0.719,0.001,1.438-0.036,2.151-0.117l2.702,4.682c0.271,0.467,0.712,0.806,1.229,0.943
		c0.516,0.138,1.065,0.063,1.527-0.207l9.924-5.828c0.961-0.565,1.287-1.809,0.728-2.778l-2.701-4.675
		c0.418-0.574,0.794-1.156,1.138-1.761c0.342-0.604,0.65-1.226,0.931-1.88l5.366-0.021c1.112-0.006,2.01-0.918,2.006-2.039
		L49.959,19.162z M41.24,28.715c-0.854,0.004-1.613,0.563-1.895,1.374c-0.323,0.936-0.699,1.779-1.146,2.566
		c-0.448,0.789-0.974,1.542-1.608,2.295c-0.553,0.657-0.633,1.595-0.205,2.339l2.378,4.116l-6.441,3.784l-2.378-4.115
		c-0.428-0.743-1.276-1.134-2.113-0.974c-0.931,0.177-1.881,0.263-2.832,0.262v-0.049c-0.908-0.001-1.818-0.081-2.716-0.245
		c-0.842-0.153-1.685,0.243-2.109,0.989l-2.347,4.137l-6.468-3.732l2.347-4.137c0.424-0.746,0.335-1.682-0.221-2.333
		c-1.227-1.437-2.167-2.97-2.792-4.736C10.406,29.447,9.647,29,8.795,29c-0.002,0-0.004,0-0.006,0l-4.725-0.074l-0.027-7.562
		l4.723-0.041c0.854-0.004,1.613-0.561,1.895-1.372c0.323-0.936,0.699-1.777,1.146-2.564c0.449-0.789,0.974-1.542,1.608-2.294
		c0.553-0.658,0.634-1.594,0.206-2.338l-2.378-4.116l6.441-3.784l2.377,4.115c0.429,0.743,1.277,1.134,2.114,0.974
		c0.93-0.177,1.88-0.238,2.832-0.237l0,0c0.908,0.001,1.818,0.105,2.716,0.27c0.842,0.153,1.685-0.243,2.109-0.989l2.347-4.137
		l6.469,3.732l-2.348,4.137c-0.424,0.746-0.334,1.682,0.222,2.333c1.227,1.437,2.167,2.948,2.792,4.715
		C39.594,20.574,40.354,21,41.205,21c0.002,0,0.004,0,0.006,0l4.726,0.096l0.026,7.573L41.24,28.715z"/>
	<path d="M30.412,15.482C28.766,14.533,26.896,14,25.009,14c-0.003,0-0.006,0-0.009,0v0.011c-3.898,0.003-7.522,2.121-9.457,5.529
		c-2.984,5.256-1.169,11.985,4.045,14.993C21.235,35.482,23.103,36,24.991,36c0.003,0,0.006,0,0.009,0l0,0
		c3.898,0,7.521-2.096,9.457-5.504C37.441,25.241,35.627,18.491,30.412,15.482z M30.961,28.454C29.74,30.602,27.458,31.967,25,31.97
		V32c-0.003,0-0.006,0-0.009,0c-1.187,0-2.364-0.356-3.403-0.955c-3.285-1.896-4.429-6.166-2.549-9.479
		C20.259,19.418,22.542,18,25,18l0,0c0.003,0,0.006,0,0.009,0c1.187,0,2.364,0.366,3.403,0.964
		C31.697,20.861,32.84,25.141,30.961,28.454z"/>
</g>
</svg>
