<?xml version="1.0" encoding="utf-8"?>
<!-- Generator: Adobe Illustrator 16.0.3, SVG Export Plug-In . SVG Version: 6.00 Build 0)  -->
<!DOCTYPE svg PUBLIC "-//W3C//DTD SVG 1.1//EN" "http://www.w3.org/Graphics/SVG/1.1/DTD/svg11.dtd">
<svg version="1.1" id="Layer_1" xmlns="http://www.w3.org/2000/svg" xmlns:xlink="http://www.w3.org/1999/xlink" x="0px" y="0px"
	 width="50px" height="50px" viewBox="0 0 50 50" enable-background="new 0 0 50 50" xml:space="preserve" fill="#fff">
<g>
	<g>
		<path d="M35.715,17.191L23.704,5.064l-1.735-1.796l-4.102,4.031c-7.01-1-12.051,1.576-13.837,4.75
			C1.862,15.9,4.077,20.1,4.148,20.232C6,23.931,8.663,26.15,12.062,26.838c0.745,0.15,1.495,0.215,2.245,0.215
			c3.53,0,7.066-1.5,9.75-3.03c0.724,0.5,1.607,0.802,2.55,0.802c2.486,0,4.506-2.027,4.506-4.521c0-2.49-2.02-4.516-4.506-4.516
			c-2.484,0-4.504,2.026-4.504,4.516c0,0.25,0.036,0.49,0.072,0.729c-2.705,1.535-6.271,2.98-9.429,2.348
			c-2.312-0.47-4.098-2.011-5.48-4.776c-0.016-0.025-1.377-2.678-0.174-4.816c1.015-1.807,3.663-2.97,7.704-3.409l-0.628,0.633
			l-5.806,5.822c0.061,0.143,0.108,0.229,0.108,0.235c0.556,1.117,1.188,2.025,1.887,2.749L20.868,9.283
			c0.5-0.5,1.163-0.775,1.867-0.775c0.705,0,1.373,0.276,1.868,0.775l12.75,12.792c1.03,1.03,1.03,2.708,0,3.74L20.771,42.43
			c-0.996,0.996-2.735,0.996-3.73,0L4.291,29.641c-0.499-0.496-0.77-1.158-0.77-1.867c0-0.705,0.271-1.373,0.77-1.873l1.378-1.383
			c-0.781-0.807-1.479-1.776-2.102-2.883l-1.766,1.771C0.643,24.574,0,26.125,0,27.773s0.643,3.199,1.801,4.361l12.75,12.791
			c1.163,1.162,2.704,1.807,4.353,1.807c1.642,0,3.188-0.645,4.351-1.807l16.566-16.623l3.475-3.454l-0.964-0.974
			c1.826-0.995,2.638,7.33,2.638,7.33s2.551,19.879,4.816,0C51.949,12.187,37.016,16.763,35.715,17.191z"/>
	</g>
</g>
</svg>
