<?xml version="1.0" encoding="utf-8"?>
<!-- Generator: Adobe Illustrator 16.0.3, SVG Export Plug-In . SVG Version: 6.00 Build 0)  -->
<!DOCTYPE svg PUBLIC "-//W3C//DTD SVG 1.1//EN" "http://www.w3.org/Graphics/SVG/1.1/DTD/svg11.dtd">
<svg version="1.1" id="Layer_1" xmlns="http://www.w3.org/2000/svg" xmlns:xlink="http://www.w3.org/1999/xlink" x="0px" y="0px"
	 width="50px" height="50px" viewBox="0 0 50 50" enable-background="new 0 0 50 50" xml:space="preserve">
<g>
	<g>
		<path fill="#FFFFFF" d="M30.467,5.102h-6.973V40.42c0,2.77,0.34,4.635,1.021,5.604c0.677,0.965,1.995,1.449,3.955,1.449v1.33
			H12.218v-1.33c2.021,0,3.392-0.555,4.119-1.666s1.09-2.98,1.09-5.621V5.102H10.77c-3.187,0-5.501,0.508-6.951,1.527
			C2.37,7.647,1.555,9.333,1.371,11.682H0V1.148h1.371c1.228,1.149,3.523,1.723,6.89,1.723h24.081c3.476,0,5.902-0.574,7.288-1.723
			h1.446v10.534h-0.901c-0.568-2.531-1.597-4.26-3.07-5.189C35.63,5.566,33.415,5.102,30.467,5.102z"/>
	</g>
	<g>
		<path fill="#FFFFFF" d="M41.797,48.852V35.75h-0.292c-3.309,0-7.912-2.678-7.912-8.035c0-4.312,2.343-9.209,11.51-9.209
			c2.219,0,3.852,0.125,4.897,0.376v29.97h-2.595V21.058h-2.972v27.793H41.797z"/>
	</g>
</g>
</svg>
