<?xml version="1.0" encoding="utf-8"?>
<!-- Generator: Adobe Illustrator 16.0.3, SVG Export Plug-In . SVG Version: 6.00 Build 0)  -->
<!DOCTYPE svg PUBLIC "-//W3C//DTD SVG 1.1//EN" "http://www.w3.org/Graphics/SVG/1.1/DTD/svg11.dtd">
<svg version="1.1" id="Layer_1" xmlns="http://www.w3.org/2000/svg" xmlns:xlink="http://www.w3.org/1999/xlink" x="0px" y="0px"
	 width="50px" height="50px" viewBox="0 0 50 50" enable-background="new 0 0 50 50" xml:space="preserve">
<g>
	<g>
		<g>
			<g>
				<rect x="13" y="22" fill="#FFFFFF" width="25" height="6"/>
			</g>
			<g>
				<rect x="22" y="11" fill="#FFFFFF" width="7" height="27"/>
			</g>
		</g>
		<g>
			<path fill="#FFFFFF" d="M25,50C11.215,50,0,38.785,0,25C0,11.215,11.215,0,25,0C38.785,0,50,11.215,50,25
				C50,38.785,38.785,50,25,50z M25,1.352C11.96,1.352,1.352,11.96,1.352,25c0,13.04,10.609,23.649,23.648,23.649
				c13.04,0,23.648-10.609,23.648-23.649C48.648,11.96,38.04,1.352,25,1.352z"/>
		</g>
	</g>
</g>
</svg>
