<?xml version="1.0" encoding="utf-8"?>
<!-- Generator: Adobe Illustrator 16.0.3, SVG Export Plug-In . SVG Version: 6.00 Build 0)  -->
<!DOCTYPE svg PUBLIC "-//W3C//DTD SVG 1.1//EN" "http://www.w3.org/Graphics/SVG/1.1/DTD/svg11.dtd">
<svg version="1.1" id="Layer_1" xmlns="http://www.w3.org/2000/svg" xmlns:xlink="http://www.w3.org/1999/xlink" x="0px" y="0px"
	 width="50px" height="50px" viewBox="0 0 50 50" enable-background="new 0 0 50 50" xml:space="preserve" fill="#fff">
<g>
	<g>
		<path d="M0.276,39.268l-0.179-0.158v-1.033l0.179-0.16c0.967-0.014,1.591-0.063,1.87-0.148c0.278-0.086,0.526-0.26,0.746-0.518
			c0.218-0.258,0.659-1.104,1.322-2.535l2.088-4.533l5.409-12.251c1.021-2.399,2.035-4.8,3.043-7.198h1.292l8.492,19.965
			l1.133,2.666c0.331,0.754,0.713,1.578,1.144,2.465c0.43,0.889,0.729,1.412,0.894,1.57c0.167,0.16,0.373,0.283,0.618,0.369
			s0.791,0.135,1.641,0.148l0.159,0.16v1.033l-0.159,0.158c-1.405-0.117-2.672-0.178-3.798-0.178
			c-2.202,0.066-4.402,0.125-6.604,0.178l-0.159-0.158v-1.033l0.159-0.16c1.485-0.025,2.413-0.088,2.784-0.188
			c0.371-0.1,0.557-0.33,0.557-0.688c0-0.291-0.093-0.676-0.278-1.154l-2.446-6.064H8.669l-2.167,5.092
			c-0.385,0.914-0.577,1.584-0.577,2.008c0,0.332,0.179,0.578,0.538,0.736c0.357,0.158,1.258,0.244,2.705,0.258l0.179,0.16v1.033
			l-0.159,0.158c-1.711-0.105-3.208-0.158-4.495-0.158C3.233,39.109,1.761,39.162,0.276,39.268z M9.345,28.111h10.062L14.416,16.12
			L9.345,28.111z"/>
	</g>
	<g>
		<path d="M31.365,39.268l-0.112-0.1V38.52l0.112-0.1c0.606-0.008,0.997-0.039,1.173-0.094c0.175-0.053,0.33-0.162,0.468-0.324
			c0.137-0.162,0.414-0.693,0.829-1.592l1.312-2.846l3.395-7.687c0.642-1.506,1.277-3.011,1.91-4.518h0.81l5.331,12.531l0.711,1.672
			c0.207,0.475,0.447,0.99,0.716,1.547c0.271,0.559,0.459,0.887,0.563,0.986c0.104,0.1,0.232,0.178,0.386,0.23
			c0.155,0.055,0.497,0.086,1.03,0.094l0.1,0.1v0.648l-0.1,0.1c-0.883-0.074-1.678-0.111-2.383-0.111
			c-1.383,0.041-2.764,0.08-4.145,0.111l-0.1-0.1V38.52l0.1-0.1c0.932-0.016,1.514-0.055,1.747-0.119
			c0.232-0.063,0.349-0.205,0.349-0.43c0-0.184-0.059-0.424-0.174-0.725l-1.534-3.807h-7.227l-1.36,3.197
			c-0.241,0.572-0.362,0.992-0.362,1.258c0,0.209,0.112,0.363,0.337,0.463s0.791,0.154,1.696,0.162l0.112,0.1v0.648l-0.099,0.1
			c-1.074-0.064-2.014-0.1-2.819-0.1C33.22,39.168,32.297,39.203,31.365,39.268z M37.055,32.268h6.316l-3.134-7.526L37.055,32.268z"
			/>
	</g>
</g>
</svg>
