<?xml version="1.0" encoding="utf-8"?>
<!-- Generator: Adobe Illustrator 16.0.3, SVG Export Plug-In . SVG Version: 6.00 Build 0)  -->
<!DOCTYPE svg PUBLIC "-//W3C//DTD SVG 1.1//EN" "http://www.w3.org/Graphics/SVG/1.1/DTD/svg11.dtd">
<svg version="1.1" id="Layer_1" xmlns="http://www.w3.org/2000/svg" xmlns:xlink="http://www.w3.org/1999/xlink" x="0px" y="0px"
	 width="50px" height="50px" viewBox="0 0 50 50" enable-background="new 0 0 50 50" xml:space="preserve" fill="#fff">
<path d="M15.313,6.31V2.261c0.002-0.598,0.242-1.17,0.667-1.59l0,0C16.4,0.245,16.974,0.002,17.573,0h14.863
	c0.598,0.002,1.168,0.24,1.59,0.663l0,0c0.422,0.421,0.659,0.992,0.663,1.589v4.05h11.728c0.804-0.004,1.459,0.643,1.464,1.447
	c0,0.004,0,0.009,0,0.013v1.818c0.01,0.81-0.638,1.473-1.445,1.481h-0.001h-1.649l-3.596,37.774
	c-0.068,0.657-0.617,1.159-1.277,1.166H10.103c-0.71,0-1.288-0.568-1.3-1.278L5.234,11.06H3.579
	c-0.809-0.001-1.462-0.659-1.459-1.468c0-0.004,0-0.009,0-0.014v-1.81C2.117,6.965,2.767,6.312,3.571,6.31c0.003,0,0.006,0,0.008,0
	H15.313z M32.325,6.31V2.83h-14.62v3.48H32.325z M23.549,18.099c0.001-0.814,0.661-1.473,1.474-1.473
	c0.813,0.001,1.471,0.66,1.472,1.473v22.438c0.001,0.813-0.659,1.473-1.472,1.473s-1.472-0.659-1.474-1.471v-0.002V18.099z
	 M32.259,17.99c0.013-0.813,0.683-1.462,1.495-1.449c0.814,0.014,1.462,0.684,1.449,1.497c-0.001,0.045-0.004,0.089-0.009,0.134
	l-1.459,22.455c-0.087,0.81-0.813,1.395-1.621,1.308c-0.759-0.081-1.33-0.729-1.315-1.493L32.259,17.99z M14.822,18.172
	c-0.05-0.811,0.565-1.506,1.376-1.558c0.809-0.049,1.506,0.566,1.556,1.376l1.478,22.434c0.052,0.81-0.564,1.508-1.372,1.56
	c-0.811,0.052-1.509-0.563-1.561-1.373l-1.477-22.422V18.172z M42.185,11.226H7.833l3.438,36.185h27.471l3.466-36.185H42.185z"/>
</svg>
