<?xml version="1.0" encoding="utf-8"?>
<!-- Generator: Adobe Illustrator 16.0.3, SVG Export Plug-In . SVG Version: 6.00 Build 0)  -->
<!DOCTYPE svg PUBLIC "-//W3C//DTD SVG 1.1//EN" "http://www.w3.org/Graphics/SVG/1.1/DTD/svg11.dtd">
<svg version="1.1" id="Layer_1" xmlns="http://www.w3.org/2000/svg" xmlns:xlink="http://www.w3.org/1999/xlink" x="0px" y="0px"
	 width="50px" height="50px" viewBox="0 0 50 50" enable-background="new 0 0 50 50" xml:space="preserve">
<path fill="#FFFFFF" d="M15.313,6.31V2.261c0.002-0.598,0.242-1.17,0.667-1.59l0,0C16.4,0.245,16.974,0.002,17.573,0h14.863
	c0.599,0.002,1.168,0.24,1.59,0.663l0,0c0.422,0.421,0.66,0.992,0.664,1.589v4.05h11.728c0.804-0.004,1.459,0.643,1.464,1.447
	c0,0.004,0,0.009,0,0.013V9.58c0.01,0.81-0.638,1.473-1.445,1.481l0,0h-1.649l-3.597,37.774c-0.067,0.657-0.617,1.159-1.276,1.166
	h-29.81c-0.71,0-1.288-0.567-1.3-1.278L5.234,11.06H3.579C2.77,11.059,2.117,10.401,2.12,9.592c0-0.004,0-0.009,0-0.014v-1.81
	C2.117,6.965,2.767,6.312,3.571,6.31c0.003,0,0.006,0,0.008,0H15.313z M32.325,6.31V2.83h-14.62v3.48H32.325z M23.549,18.099
	c0.001-0.814,0.661-1.473,1.474-1.473c0.813,0.001,1.471,0.66,1.472,1.473v22.438c0.001,0.813-0.659,1.473-1.472,1.473
	s-1.472-0.658-1.474-1.471v-0.002V18.099z M32.259,17.99c0.013-0.813,0.683-1.462,1.495-1.449c0.814,0.014,1.462,0.684,1.449,1.497
	c-0.001,0.045-0.004,0.089-0.01,0.134l-1.459,22.455c-0.086,0.811-0.813,1.395-1.621,1.309c-0.758-0.082-1.329-0.729-1.314-1.494
	L32.259,17.99z M14.822,18.172c-0.05-0.811,0.565-1.506,1.376-1.558c0.809-0.049,1.506,0.566,1.556,1.376l1.478,22.434
	c0.052,0.811-0.564,1.508-1.372,1.561c-0.811,0.052-1.509-0.563-1.561-1.373l-1.477-22.422V18.172z M42.186,11.226H7.833
	l3.438,36.185h27.471l3.466-36.185H42.186z"/>
</svg>
